# xmcd
#
# Track frame offsets:
#	182
#	12300
#	22592
#	36325
#	52417
#	62462
#	73970
#	86862
#	100832
#	111527
#
# Disc length: 1636 seconds
#
# Revision: 0
# Processed by: cddbd v1.5.1PL0 Copyright (c) Steve Scherf et al.
# Submitted via: EasyCDDAExtractor 4.6.9.1
#
DISCID=8b06620a
DTITLE=Jerry Lee Lewis - Whole Lotta Shakin'
DYEAR=1997
DGENRE=Other
TTITLE0=Whole Lotta Shakin' Goin' On
TTITLE1=Drinking Wine Spo Dee O Dee
TTITLE2=You Win Again
TTITLE3=High Heel Sneakers
TTITLE4=Forever Forgiving
TTITLE5=Come On In
TTITLE6=Swinging Doors
TTITLE7=Sweet Dreams
TTITLE8=I Love You Because
TTITLE9=Turn On Your Love Light
EXTD=
EXTT0=
EXTT1=
EXTT2=
EXTT3=
EXTT4=
EXTT5=
EXTT6=
EXTT7=
EXTT8=
EXTT9=
PLAYORDER=
